<svg xmlns="http://www.w3.org/2000/svg" width="51.063" height="16.016" viewBox="0 0 51.063 16.016">
  <path id="after" d="M-44.792-15.708h2.926L-35.816,0h-2.948l-1.474-4.158h-6.27L-47.982,0H-50.82Zm-.968,9.46h4.8L-43.318-13h-.066Zm10.406-5.126h1.87v-.946a4.851,4.851,0,0,1,.264-1.749,2.485,2.485,0,0,1,.7-1.034,2.319,2.319,0,0,1,1-.484,5.57,5.57,0,0,1,1.177-.121,7.181,7.181,0,0,1,1.76.154V-13.6a3.59,3.59,0,0,0-.517-.1,5.532,5.532,0,0,0-.649-.033,1.53,1.53,0,0,0-.869.242,1.061,1.061,0,0,0-.363.946v1.166h2.134V-9.5h-2.134V0h-2.508V-9.5h-1.87Zm7.348,0h1.892v-3.41h2.508v3.41h2.266V-9.5h-2.266v6.072a6.057,6.057,0,0,0,.033.682,1.177,1.177,0,0,0,.154.484.736.736,0,0,0,.363.3,1.786,1.786,0,0,0,.66.1q.264,0,.528-.011a2.622,2.622,0,0,0,.528-.077V-.022l-.814.088a7.368,7.368,0,0,1-.814.044,5.552,5.552,0,0,1-1.6-.187,2.129,2.129,0,0,1-.946-.55,1.9,1.9,0,0,1-.462-.913,6.87,6.87,0,0,1-.143-1.254V-9.5h-1.892Zm16.72,4.686a4.044,4.044,0,0,0-.253-1.144,3.048,3.048,0,0,0-.572-.957,2.833,2.833,0,0,0-.88-.66A2.593,2.593,0,0,0-14.146-9.7a3.014,3.014,0,0,0-1.2.231,2.742,2.742,0,0,0-.924.638,3.155,3.155,0,0,0-.616.957,3.339,3.339,0,0,0-.253,1.188Zm-5.852,1.65a4.368,4.368,0,0,0,.187,1.276,3.144,3.144,0,0,0,.561,1.078,2.7,2.7,0,0,0,.946.737,3.121,3.121,0,0,0,1.364.275,3.013,3.013,0,0,0,1.771-.473,2.8,2.8,0,0,0,1-1.419h2.376a4.729,4.729,0,0,1-.682,1.65A4.745,4.745,0,0,1-10.78-.693a5.033,5.033,0,0,1-1.529.748A6.155,6.155,0,0,1-14.08.308a6.022,6.022,0,0,1-2.376-.44A4.912,4.912,0,0,1-18.2-1.364a5.228,5.228,0,0,1-1.078-1.892,7.686,7.686,0,0,1-.363-2.42,6.846,6.846,0,0,1,.385-2.3,5.885,5.885,0,0,1,1.1-1.914A5.261,5.261,0,0,1-16.434-11.2a5.238,5.238,0,0,1,2.288-.484,5.1,5.1,0,0,1,2.409.561A5.286,5.286,0,0,1-9.966-9.636,6.013,6.013,0,0,1-8.943-7.513a6.508,6.508,0,0,1,.165,2.475Zm10.714-6.336H-4.07v2.2h.044a2.539,2.539,0,0,1,.429-.9,4.183,4.183,0,0,1,.77-.8,3.891,3.891,0,0,1,1-.583A3,3,0,0,1-.7-11.682,5.441,5.441,0,0,1-.1-11.66l.341.044V-9.2Q-.022-9.24-.3-9.273a4.522,4.522,0,0,0-.539-.033,2.883,2.883,0,0,0-1.2.253,2.754,2.754,0,0,0-.979.748,3.666,3.666,0,0,0-.66,1.221,5.284,5.284,0,0,0-.242,1.672V0H-6.424Z" transform="translate(50.82 15.708)" fill="#666"/>
</svg>
