<svg xmlns="http://www.w3.org/2000/svg" width="382.934" height="594.829" viewBox="0 0 382.934 594.829">
  <g id="グループ_206" data-name="グループ 206" transform="translate(-14152.06 -2217.171)">
    <path id="パス_239" data-name="パス 239" d="M4.218-11.077V-13.3H-3.211L-4.522-5.947H-2.09a2.75,2.75,0,0,1,.855-.808A2.387,2.387,0,0,1-.057-7.011a2.321,2.321,0,0,1,.969.19,2.14,2.14,0,0,1,.722.532,2.264,2.264,0,0,1,.456.8,3.044,3.044,0,0,1,.152.969,2.907,2.907,0,0,1-.162.96,2.57,2.57,0,0,1-.456.817,2.288,2.288,0,0,1-.722.57,2.078,2.078,0,0,1-.96.218,2.131,2.131,0,0,1-1.5-.542,2.206,2.206,0,0,1-.684-1.454h-2.7a4.1,4.1,0,0,0,.428,1.834A3.955,3.955,0,0,0-3.42-.8,4.626,4.626,0,0,0-1.852-.01,6.611,6.611,0,0,0,0,.247,4.884,4.884,0,0,0,1.9-.085a4.764,4.764,0,0,0,1.568-1,4.868,4.868,0,0,0,1.073-1.53,4.585,4.585,0,0,0,.4-1.91A5.522,5.522,0,0,0,4.665-6.28a4.222,4.222,0,0,0-.8-1.434,3.839,3.839,0,0,0-1.283-.969A4.029,4.029,0,0,0,.836-9.044a4,4,0,0,0-1.425.238,3.351,3.351,0,0,0-1.178.788l-.038-.038.532-3.021Z" transform="translate(14157 2290.697)" fill="gray"/>
    <path id="パス_111" data-name="パス 111" d="M11325.9,3525.055v504" transform="translate(25480.898 6337.055) rotate(180)" fill="none" stroke="#d9d9d9" stroke-width="2"/>
    <path id="パス_111-2" data-name="パス 111" d="M11325.9,3525.055v504" transform="translate(25570.898 6337.055) rotate(180)" fill="none" stroke="#d9d9d9" stroke-width="2"/>
    <path id="パス_111-3" data-name="パス 111" d="M11325.9,3525.055v504" transform="translate(25660.898 6337.055) rotate(180)" fill="none" stroke="#d9d9d9" stroke-width="2"/>
    <path id="パス_111-4" data-name="パス 111" d="M11325.9,3525.055v504" transform="translate(25750.898 6337.055) rotate(180)" fill="none" stroke="#d9d9d9" stroke-width="2"/>
    <path id="パス_111-5" data-name="パス 111" d="M11325.9,3525.055v504" transform="translate(25840.898 6337.055) rotate(180)" fill="none" stroke="#d9d9d9" stroke-width="2"/>
    <path id="パス_240" data-name="パス 240" d="M-3.116,0V-13.3H-5.263a2.937,2.937,0,0,1-.475,1.273,2.89,2.89,0,0,1-.884.826,3.544,3.544,0,0,1-1.178.437,6.387,6.387,0,0,1-1.359.1v2.033h3.344V0ZM3.1-6.707q0-.342.009-.826t.066-1a7,7,0,0,1,.19-1.016,3.5,3.5,0,0,1,.371-.9,1.982,1.982,0,0,1,.608-.646,1.626,1.626,0,0,1,.922-.247,1.672,1.672,0,0,1,.931.247,2.038,2.038,0,0,1,.627.646,3.109,3.109,0,0,1,.371.9,9.262,9.262,0,0,1,.19,1.016,9.158,9.158,0,0,1,.076,1q.009.484.009.826,0,.57-.038,1.378a7.4,7.4,0,0,1-.237,1.558,3.27,3.27,0,0,1-.646,1.283,1.58,1.58,0,0,1-1.283.532,1.53,1.53,0,0,1-1.254-.532,3.343,3.343,0,0,1-.636-1.283,7.4,7.4,0,0,1-.237-1.558Q3.1-6.137,3.1-6.707Zm-2.7,0A12.133,12.133,0,0,0,.788-3.372,5.864,5.864,0,0,0,1.843-1.235,3.782,3.782,0,0,0,3.391-.095,5.139,5.139,0,0,0,5.263.247,5.191,5.191,0,0,0,7.154-.095a3.851,3.851,0,0,0,1.558-1.14A5.772,5.772,0,0,0,9.776-3.372a12.133,12.133,0,0,0,.39-3.334,11.676,11.676,0,0,0-.39-3.259,5.777,5.777,0,0,0-1.064-2.118,3.851,3.851,0,0,0-1.558-1.14,5.191,5.191,0,0,0-1.891-.342,5.139,5.139,0,0,0-1.872.342,3.781,3.781,0,0,0-1.548,1.14A5.869,5.869,0,0,0,.788-9.965,11.676,11.676,0,0,0,.4-6.707Z" transform="translate(14246.49 2290.307)" fill="gray"/>
    <path id="パス_241" data-name="パス 241" d="M-3.116,0V-13.3H-5.263a2.937,2.937,0,0,1-.475,1.273,2.89,2.89,0,0,1-.884.826,3.544,3.544,0,0,1-1.178.437,6.387,6.387,0,0,1-1.359.1v2.033h3.344V0ZM9.5-11.077V-13.3H2.071L.76-5.947H3.192a2.75,2.75,0,0,1,.855-.808,2.387,2.387,0,0,1,1.178-.256,2.321,2.321,0,0,1,.969.19,2.14,2.14,0,0,1,.722.532,2.264,2.264,0,0,1,.456.8,3.044,3.044,0,0,1,.152.969,2.907,2.907,0,0,1-.162.96,2.57,2.57,0,0,1-.456.817,2.288,2.288,0,0,1-.722.57,2.078,2.078,0,0,1-.96.218,2.131,2.131,0,0,1-1.5-.542A2.206,2.206,0,0,1,3.04-3.952H.342A4.1,4.1,0,0,0,.77-2.118,3.955,3.955,0,0,0,1.862-.8,4.626,4.626,0,0,0,3.43-.01,6.611,6.611,0,0,0,5.282.247a4.884,4.884,0,0,0,1.9-.333,4.764,4.764,0,0,0,1.568-1,4.868,4.868,0,0,0,1.073-1.53,4.585,4.585,0,0,0,.4-1.91A5.522,5.522,0,0,0,9.947-6.28a4.222,4.222,0,0,0-.8-1.434,3.839,3.839,0,0,0-1.283-.969,4.029,4.029,0,0,0-1.748-.361,4,4,0,0,0-1.425.238,3.351,3.351,0,0,0-1.178.788l-.038-.038.532-3.021Z" transform="translate(14335.912 2290.307)" fill="gray"/>
    <path id="パス_242" data-name="パス 242" d="M-9.861-8.189h2.584a5.655,5.655,0,0,1,.1-1.073,3.33,3.33,0,0,1,.352-.988,2.057,2.057,0,0,1,.655-.722,1.743,1.743,0,0,1,1-.276,1.979,1.979,0,0,1,1.434.542A2,2,0,0,1-3.173-9.2a2.119,2.119,0,0,1-.275,1.083,3.693,3.693,0,0,1-.684.855,6.191,6.191,0,0,1-.9.694q-.494.314-.931.617-.855.589-1.624,1.159A7.9,7.9,0,0,0-8.93-3.543a5.359,5.359,0,0,0-.9,1.53A5.545,5.545,0,0,0-10.165,0H-.4V-2.318H-6.688a6.02,6.02,0,0,1,1.14-1.2q.646-.513,1.33-.959t1.359-.9A7.267,7.267,0,0,0-1.653-6.393,4.541,4.541,0,0,0-.8-7.676,4.213,4.213,0,0,0-.475-9.4a4.019,4.019,0,0,0-.371-1.748,3.88,3.88,0,0,0-1-1.311A4.478,4.478,0,0,0-3.3-13.281a5.3,5.3,0,0,0-1.738-.285,5.181,5.181,0,0,0-2.119.408,4.131,4.131,0,0,0-1.53,1.14,4.931,4.931,0,0,0-.912,1.71A6.381,6.381,0,0,0-9.861-8.189ZM3.1-6.707q0-.342.009-.826t.066-1a7,7,0,0,1,.19-1.016,3.5,3.5,0,0,1,.371-.9,1.982,1.982,0,0,1,.608-.646,1.626,1.626,0,0,1,.922-.247,1.672,1.672,0,0,1,.931.247,2.038,2.038,0,0,1,.627.646,3.109,3.109,0,0,1,.371.9,9.262,9.262,0,0,1,.19,1.016,9.158,9.158,0,0,1,.076,1q.009.484.009.826,0,.57-.038,1.378a7.4,7.4,0,0,1-.237,1.558,3.27,3.27,0,0,1-.646,1.283,1.58,1.58,0,0,1-1.283.532,1.53,1.53,0,0,1-1.254-.532,3.343,3.343,0,0,1-.636-1.283,7.4,7.4,0,0,1-.237-1.558Q3.1-6.137,3.1-6.707Zm-2.7,0A12.133,12.133,0,0,0,.788-3.372,5.864,5.864,0,0,0,1.843-1.235,3.782,3.782,0,0,0,3.391-.095,5.139,5.139,0,0,0,5.263.247,5.191,5.191,0,0,0,7.154-.095a3.851,3.851,0,0,0,1.558-1.14A5.772,5.772,0,0,0,9.776-3.372a12.133,12.133,0,0,0,.39-3.334,11.676,11.676,0,0,0-.39-3.259,5.777,5.777,0,0,0-1.064-2.118,3.851,3.851,0,0,0-1.558-1.14,5.191,5.191,0,0,0-1.891-.342,5.139,5.139,0,0,0-1.872.342,3.781,3.781,0,0,0-1.548,1.14A5.869,5.869,0,0,0,.788-9.965,11.676,11.676,0,0,0,.4-6.707Z" transform="translate(14426.397 2290.307)" fill="gray"/>
    <path id="パス_243" data-name="パス 243" d="M-9.861-8.189h2.584a5.655,5.655,0,0,1,.1-1.073,3.33,3.33,0,0,1,.352-.988,2.057,2.057,0,0,1,.655-.722,1.743,1.743,0,0,1,1-.276,1.979,1.979,0,0,1,1.434.542A2,2,0,0,1-3.173-9.2a2.119,2.119,0,0,1-.275,1.083,3.693,3.693,0,0,1-.684.855,6.191,6.191,0,0,1-.9.694q-.494.314-.931.617-.855.589-1.624,1.159A7.9,7.9,0,0,0-8.93-3.543a5.359,5.359,0,0,0-.9,1.53A5.545,5.545,0,0,0-10.165,0H-.4V-2.318H-6.688a6.02,6.02,0,0,1,1.14-1.2q.646-.513,1.33-.959t1.359-.9A7.267,7.267,0,0,0-1.653-6.393,4.541,4.541,0,0,0-.8-7.676,4.213,4.213,0,0,0-.475-9.4a4.019,4.019,0,0,0-.371-1.748,3.88,3.88,0,0,0-1-1.311A4.478,4.478,0,0,0-3.3-13.281a5.3,5.3,0,0,0-1.738-.285,5.181,5.181,0,0,0-2.119.408,4.131,4.131,0,0,0-1.53,1.14,4.931,4.931,0,0,0-.912,1.71A6.381,6.381,0,0,0-9.861-8.189ZM9.5-11.077V-13.3H2.071L.76-5.947H3.192a2.75,2.75,0,0,1,.855-.808,2.387,2.387,0,0,1,1.178-.256,2.321,2.321,0,0,1,.969.19,2.14,2.14,0,0,1,.722.532,2.264,2.264,0,0,1,.456.8,3.044,3.044,0,0,1,.152.969,2.907,2.907,0,0,1-.162.96,2.57,2.57,0,0,1-.456.817,2.288,2.288,0,0,1-.722.57,2.078,2.078,0,0,1-.96.218,2.131,2.131,0,0,1-1.5-.542A2.206,2.206,0,0,1,3.04-3.952H.342A4.1,4.1,0,0,0,.77-2.118,3.955,3.955,0,0,0,1.862-.8,4.626,4.626,0,0,0,3.43-.01,6.611,6.611,0,0,0,5.282.247a4.884,4.884,0,0,0,1.9-.333,4.764,4.764,0,0,0,1.568-1,4.868,4.868,0,0,0,1.073-1.53,4.585,4.585,0,0,0,.4-1.91A5.522,5.522,0,0,0,9.947-6.28a4.222,4.222,0,0,0-.8-1.434,3.839,3.839,0,0,0-1.283-.969,4.029,4.029,0,0,0-1.748-.361,4,4,0,0,0-1.425.238,3.351,3.351,0,0,0-1.178.788l-.038-.038.532-3.021Z" transform="translate(14516.826 2290.307)" fill="gray"/>
    <path id="パス_244" data-name="パス 244" d="M-49.824-17.136h3.192L-40.032,0h-3.216l-1.608-4.536H-51.7L-53.3,0h-3.1ZM-50.88-6.816h5.232l-2.568-7.368h-.072Zm11.592-5.592h2.04V-13.44a5.292,5.292,0,0,1,.288-1.908,2.711,2.711,0,0,1,.768-1.128A2.529,2.529,0,0,1-35.1-17a6.076,6.076,0,0,1,1.284-.132,7.834,7.834,0,0,1,1.92.168v2.136a3.917,3.917,0,0,0-.564-.108,6.036,6.036,0,0,0-.708-.036,1.669,1.669,0,0,0-.948.264,1.157,1.157,0,0,0-.4,1.032v1.272h2.328v2.04h-2.328V0h-2.736V-10.368h-2.04Zm8.256,0h2.064v-3.72h2.736v3.72h2.472v2.04h-2.472v6.624A6.607,6.607,0,0,0-26.2-3a1.284,1.284,0,0,0,.168.528.8.8,0,0,0,.4.324,1.949,1.949,0,0,0,.72.108q.288,0,.576-.012a2.861,2.861,0,0,0,.576-.084V-.024l-.888.1a8.038,8.038,0,0,1-.888.048,6.057,6.057,0,0,1-1.74-.2,2.323,2.323,0,0,1-1.032-.6,2.07,2.07,0,0,1-.5-1,7.5,7.5,0,0,1-.156-1.368v-7.32h-2.064ZM-12.552-7.3a4.412,4.412,0,0,0-.276-1.248,3.325,3.325,0,0,0-.624-1.044,3.09,3.09,0,0,0-.96-.72,2.828,2.828,0,0,0-1.26-.276,3.288,3.288,0,0,0-1.308.252,2.991,2.991,0,0,0-1.008.7,3.442,3.442,0,0,0-.672,1.044,3.642,3.642,0,0,0-.276,1.3Zm-6.384,1.8a4.765,4.765,0,0,0,.2,1.392,3.43,3.43,0,0,0,.612,1.176,2.95,2.95,0,0,0,1.032.8,3.405,3.405,0,0,0,1.488.3,3.286,3.286,0,0,0,1.932-.516,3.05,3.05,0,0,0,1.092-1.548h2.592a5.159,5.159,0,0,1-.744,1.8A5.177,5.177,0,0,1-12-.756,5.49,5.49,0,0,1-13.668.06,6.714,6.714,0,0,1-15.6.336a6.57,6.57,0,0,1-2.592-.48A5.358,5.358,0,0,1-20.1-1.488a5.7,5.7,0,0,1-1.176-2.064,8.385,8.385,0,0,1-.4-2.64,7.469,7.469,0,0,1,.42-2.508,6.42,6.42,0,0,1,1.2-2.088,5.739,5.739,0,0,1,1.884-1.428,5.714,5.714,0,0,1,2.5-.528,5.561,5.561,0,0,1,2.628.612,5.767,5.767,0,0,1,1.932,1.62A6.559,6.559,0,0,1-10-8.2a7.1,7.1,0,0,1,.18,2.7Zm11.928-6.912H-4.44v2.4h.048a2.769,2.769,0,0,1,.468-.984,4.563,4.563,0,0,1,.84-.876A4.245,4.245,0,0,1-1.992-12.5a3.269,3.269,0,0,1,1.224-.24,5.936,5.936,0,0,1,.66.024l.372.048v2.64q-.288-.048-.588-.084a4.933,4.933,0,0,0-.588-.036,3.145,3.145,0,0,0-1.308.276,3,3,0,0,0-1.068.816,4,4,0,0,0-.72,1.332A5.765,5.765,0,0,0-4.272-5.9V0H-7.008Z" transform="translate(14534.729 2234.307)" fill="#666"/>
  </g>
</svg>
