<svg xmlns="http://www.w3.org/2000/svg" width="56.664" height="17.472" viewBox="0 0 56.664 17.472">
  <path id="after" d="M-49.824-17.136h3.192L-40.032,0h-3.216l-1.608-4.536H-51.7L-53.3,0h-3.1ZM-50.88-6.816h5.232l-2.568-7.368h-.072Zm11.592-5.592h2.04V-13.44a5.292,5.292,0,0,1,.288-1.908,2.711,2.711,0,0,1,.768-1.128A2.529,2.529,0,0,1-35.1-17a6.076,6.076,0,0,1,1.284-.132,7.834,7.834,0,0,1,1.92.168v2.136a3.917,3.917,0,0,0-.564-.108,6.036,6.036,0,0,0-.708-.036,1.669,1.669,0,0,0-.948.264,1.157,1.157,0,0,0-.4,1.032v1.272h2.328v2.04h-2.328V0h-2.736V-10.368h-2.04Zm8.256,0h2.064v-3.72h2.736v3.72h2.472v2.04h-2.472v6.624A6.607,6.607,0,0,0-26.2-3a1.284,1.284,0,0,0,.168.528.8.8,0,0,0,.4.324,1.949,1.949,0,0,0,.72.108q.288,0,.576-.012a2.861,2.861,0,0,0,.576-.084V-.024l-.888.1a8.038,8.038,0,0,1-.888.048,6.057,6.057,0,0,1-1.74-.2,2.323,2.323,0,0,1-1.032-.6,2.07,2.07,0,0,1-.5-1,7.5,7.5,0,0,1-.156-1.368v-7.32h-2.064ZM-12.552-7.3a4.412,4.412,0,0,0-.276-1.248,3.325,3.325,0,0,0-.624-1.044,3.09,3.09,0,0,0-.96-.72,2.828,2.828,0,0,0-1.26-.276,3.288,3.288,0,0,0-1.308.252,2.991,2.991,0,0,0-1.008.7,3.442,3.442,0,0,0-.672,1.044,3.642,3.642,0,0,0-.276,1.3Zm-6.384,1.8a4.765,4.765,0,0,0,.2,1.392,3.43,3.43,0,0,0,.612,1.176,2.95,2.95,0,0,0,1.032.8,3.405,3.405,0,0,0,1.488.3,3.286,3.286,0,0,0,1.932-.516,3.05,3.05,0,0,0,1.092-1.548h2.592a5.159,5.159,0,0,1-.744,1.8A5.177,5.177,0,0,1-12-.756,5.49,5.49,0,0,1-13.668.06,6.714,6.714,0,0,1-15.6.336a6.57,6.57,0,0,1-2.592-.48A5.358,5.358,0,0,1-20.1-1.488a5.7,5.7,0,0,1-1.176-2.064,8.385,8.385,0,0,1-.4-2.64,7.469,7.469,0,0,1,.42-2.508,6.42,6.42,0,0,1,1.2-2.088,5.739,5.739,0,0,1,1.884-1.428,5.714,5.714,0,0,1,2.5-.528,5.561,5.561,0,0,1,2.628.612,5.767,5.767,0,0,1,1.932,1.62A6.559,6.559,0,0,1-10-8.2a7.1,7.1,0,0,1,.18,2.7Zm11.928-6.912H-4.44v2.4h.048a2.769,2.769,0,0,1,.468-.984,4.563,4.563,0,0,1,.84-.876A4.245,4.245,0,0,1-1.992-12.5a3.269,3.269,0,0,1,1.224-.24,5.936,5.936,0,0,1,.66.024l.372.048v2.64q-.288-.048-.588-.084a4.933,4.933,0,0,0-.588-.036,3.145,3.145,0,0,0-1.308.276,3,3,0,0,0-1.068.816,4,4,0,0,0-.72,1.332A5.765,5.765,0,0,0-4.272-5.9V0H-7.008Z" transform="translate(56.4 17.136)" fill="#666"/>
</svg>
