<svg xmlns="http://www.w3.org/2000/svg" xmlns:xlink="http://www.w3.org/1999/xlink" width="407.94" height="595.515" viewBox="0 0 407.94 595.515">
  <defs>
    <clipPath id="clip-path">
      <rect width="403" height="503.989" fill="none"/>
    </clipPath>
  </defs>
  <g id="グループ_199" data-name="グループ 199" transform="translate(-433 -306.864)">
    <g id="グループ_190" data-name="グループ 190" transform="translate(445.603)">
      <path id="パス_238" data-name="パス 238" d="M4.218-11.077V-13.3H-3.211L-4.522-5.947H-2.09a2.75,2.75,0,0,1,.855-.808A2.387,2.387,0,0,1-.057-7.011a2.321,2.321,0,0,1,.969.19,2.14,2.14,0,0,1,.722.532,2.264,2.264,0,0,1,.456.8,3.044,3.044,0,0,1,.152.969,2.907,2.907,0,0,1-.162.96,2.57,2.57,0,0,1-.456.817,2.288,2.288,0,0,1-.722.57,2.078,2.078,0,0,1-.96.218,2.131,2.131,0,0,1-1.5-.542,2.206,2.206,0,0,1-.684-1.454h-2.7a4.1,4.1,0,0,0,.428,1.834A3.955,3.955,0,0,0-3.42-.8,4.626,4.626,0,0,0-1.852-.01,6.611,6.611,0,0,0,0,.247,4.884,4.884,0,0,0,1.9-.085a4.764,4.764,0,0,0,1.568-1,4.868,4.868,0,0,0,1.073-1.53,4.585,4.585,0,0,0,.4-1.91A5.522,5.522,0,0,0,4.665-6.28a4.222,4.222,0,0,0-.8-1.434,3.839,3.839,0,0,0-1.283-.969A4.029,4.029,0,0,0,.836-9.044a4,4,0,0,0-1.425.238,3.351,3.351,0,0,0-1.178.788l-.038-.038.532-3.021Z" transform="translate(390.397 380.39)" fill="gray"/>
      <path id="パス_237" data-name="パス 237" d="M-3.116,0V-13.3H-5.263a2.937,2.937,0,0,1-.475,1.273,2.89,2.89,0,0,1-.884.826,3.544,3.544,0,0,1-1.178.437,6.387,6.387,0,0,1-1.359.1v2.033h3.344V0ZM3.1-6.707q0-.342.009-.826t.066-1a7,7,0,0,1,.19-1.016,3.5,3.5,0,0,1,.371-.9,1.982,1.982,0,0,1,.608-.646,1.626,1.626,0,0,1,.922-.247,1.672,1.672,0,0,1,.931.247,2.038,2.038,0,0,1,.627.646,3.109,3.109,0,0,1,.371.9,9.262,9.262,0,0,1,.19,1.016,9.158,9.158,0,0,1,.076,1q.009.484.009.826,0,.57-.038,1.378a7.4,7.4,0,0,1-.237,1.558,3.27,3.27,0,0,1-.646,1.283,1.58,1.58,0,0,1-1.283.532,1.53,1.53,0,0,1-1.254-.532,3.343,3.343,0,0,1-.636-1.283,7.4,7.4,0,0,1-.237-1.558Q3.1-6.137,3.1-6.707Zm-2.7,0A12.133,12.133,0,0,0,.788-3.372,5.864,5.864,0,0,0,1.843-1.235,3.782,3.782,0,0,0,3.391-.095,5.139,5.139,0,0,0,5.263.247,5.191,5.191,0,0,0,7.154-.095a3.851,3.851,0,0,0,1.558-1.14A5.772,5.772,0,0,0,9.776-3.372a12.133,12.133,0,0,0,.39-3.334,11.676,11.676,0,0,0-.39-3.259,5.777,5.777,0,0,0-1.064-2.118,3.851,3.851,0,0,0-1.558-1.14,5.191,5.191,0,0,0-1.891-.342,5.139,5.139,0,0,0-1.872.342,3.781,3.781,0,0,0-1.548,1.14A5.869,5.869,0,0,0,.788-9.965,11.676,11.676,0,0,0,.4-6.707Z" transform="translate(295 380)" fill="gray"/>
      <path id="パス_236" data-name="パス 236" d="M-3.116,0V-13.3H-5.263a2.937,2.937,0,0,1-.475,1.273,2.89,2.89,0,0,1-.884.826,3.544,3.544,0,0,1-1.178.437,6.387,6.387,0,0,1-1.359.1v2.033h3.344V0ZM9.5-11.077V-13.3H2.071L.76-5.947H3.192a2.75,2.75,0,0,1,.855-.808,2.387,2.387,0,0,1,1.178-.256,2.321,2.321,0,0,1,.969.19,2.14,2.14,0,0,1,.722.532,2.264,2.264,0,0,1,.456.8,3.044,3.044,0,0,1,.152.969,2.907,2.907,0,0,1-.162.96,2.57,2.57,0,0,1-.456.817,2.288,2.288,0,0,1-.722.57,2.078,2.078,0,0,1-.96.218,2.131,2.131,0,0,1-1.5-.542A2.206,2.206,0,0,1,3.04-3.952H.342A4.1,4.1,0,0,0,.77-2.118,3.955,3.955,0,0,0,1.862-.8,4.626,4.626,0,0,0,3.43-.01,6.611,6.611,0,0,0,5.282.247a4.884,4.884,0,0,0,1.9-.333,4.764,4.764,0,0,0,1.568-1,4.868,4.868,0,0,0,1.073-1.53,4.585,4.585,0,0,0,.4-1.91A5.522,5.522,0,0,0,9.947-6.28a4.222,4.222,0,0,0-.8-1.434,3.839,3.839,0,0,0-1.283-.969,4.029,4.029,0,0,0-1.748-.361,4,4,0,0,0-1.425.238,3.351,3.351,0,0,0-1.178.788l-.038-.038.532-3.021Z" transform="translate(200 380)" fill="gray"/>
      <path id="パス_234" data-name="パス 234" d="M-9.861-8.189h2.584a5.655,5.655,0,0,1,.1-1.073,3.33,3.33,0,0,1,.352-.988,2.057,2.057,0,0,1,.655-.722,1.743,1.743,0,0,1,1-.276,1.979,1.979,0,0,1,1.434.542A2,2,0,0,1-3.173-9.2a2.119,2.119,0,0,1-.275,1.083,3.693,3.693,0,0,1-.684.855,6.191,6.191,0,0,1-.9.694q-.494.314-.931.617-.855.589-1.624,1.159A7.9,7.9,0,0,0-8.93-3.543a5.359,5.359,0,0,0-.9,1.53A5.545,5.545,0,0,0-10.165,0H-.4V-2.318H-6.688a6.02,6.02,0,0,1,1.14-1.2q.646-.513,1.33-.959t1.359-.9A7.267,7.267,0,0,0-1.653-6.393,4.541,4.541,0,0,0-.8-7.676,4.213,4.213,0,0,0-.475-9.4a4.019,4.019,0,0,0-.371-1.748,3.88,3.88,0,0,0-1-1.311A4.478,4.478,0,0,0-3.3-13.281a5.3,5.3,0,0,0-1.738-.285,5.181,5.181,0,0,0-2.119.408,4.131,4.131,0,0,0-1.53,1.14,4.931,4.931,0,0,0-.912,1.71A6.381,6.381,0,0,0-9.861-8.189ZM3.1-6.707q0-.342.009-.826t.066-1a7,7,0,0,1,.19-1.016,3.5,3.5,0,0,1,.371-.9,1.982,1.982,0,0,1,.608-.646,1.626,1.626,0,0,1,.922-.247,1.672,1.672,0,0,1,.931.247,2.038,2.038,0,0,1,.627.646,3.109,3.109,0,0,1,.371.9,9.262,9.262,0,0,1,.19,1.016,9.158,9.158,0,0,1,.076,1q.009.484.009.826,0,.57-.038,1.378a7.4,7.4,0,0,1-.237,1.558,3.27,3.27,0,0,1-.646,1.283,1.58,1.58,0,0,1-1.283.532,1.53,1.53,0,0,1-1.254-.532,3.343,3.343,0,0,1-.636-1.283,7.4,7.4,0,0,1-.237-1.558Q3.1-6.137,3.1-6.707Zm-2.7,0A12.133,12.133,0,0,0,.788-3.372,5.864,5.864,0,0,0,1.843-1.235,3.782,3.782,0,0,0,3.391-.095,5.139,5.139,0,0,0,5.263.247,5.191,5.191,0,0,0,7.154-.095a3.851,3.851,0,0,0,1.558-1.14A5.772,5.772,0,0,0,9.776-3.372a12.133,12.133,0,0,0,.39-3.334,11.676,11.676,0,0,0-.39-3.259,5.777,5.777,0,0,0-1.064-2.118,3.851,3.851,0,0,0-1.558-1.14,5.191,5.191,0,0,0-1.891-.342,5.139,5.139,0,0,0-1.872.342,3.781,3.781,0,0,0-1.548,1.14A5.869,5.869,0,0,0,.788-9.965,11.676,11.676,0,0,0,.4-6.707Z" transform="translate(105 380)" fill="gray"/>
      <path id="パス_235" data-name="パス 235" d="M-9.861-8.189h2.584a5.655,5.655,0,0,1,.1-1.073,3.33,3.33,0,0,1,.352-.988,2.057,2.057,0,0,1,.655-.722,1.743,1.743,0,0,1,1-.276,1.979,1.979,0,0,1,1.434.542A2,2,0,0,1-3.173-9.2a2.119,2.119,0,0,1-.275,1.083,3.693,3.693,0,0,1-.684.855,6.191,6.191,0,0,1-.9.694q-.494.314-.931.617-.855.589-1.624,1.159A7.9,7.9,0,0,0-8.93-3.543a5.359,5.359,0,0,0-.9,1.53A5.545,5.545,0,0,0-10.165,0H-.4V-2.318H-6.688a6.02,6.02,0,0,1,1.14-1.2q.646-.513,1.33-.959t1.359-.9A7.267,7.267,0,0,0-1.653-6.393,4.541,4.541,0,0,0-.8-7.676,4.213,4.213,0,0,0-.475-9.4a4.019,4.019,0,0,0-.371-1.748,3.88,3.88,0,0,0-1-1.311A4.478,4.478,0,0,0-3.3-13.281a5.3,5.3,0,0,0-1.738-.285,5.181,5.181,0,0,0-2.119.408,4.131,4.131,0,0,0-1.53,1.14,4.931,4.931,0,0,0-.912,1.71A6.381,6.381,0,0,0-9.861-8.189ZM9.5-11.077V-13.3H2.071L.76-5.947H3.192a2.75,2.75,0,0,1,.855-.808,2.387,2.387,0,0,1,1.178-.256,2.321,2.321,0,0,1,.969.19,2.14,2.14,0,0,1,.722.532,2.264,2.264,0,0,1,.456.8,3.044,3.044,0,0,1,.152.969,2.907,2.907,0,0,1-.162.96,2.57,2.57,0,0,1-.456.817,2.288,2.288,0,0,1-.722.57,2.078,2.078,0,0,1-.96.218,2.131,2.131,0,0,1-1.5-.542A2.206,2.206,0,0,1,3.04-3.952H.342A4.1,4.1,0,0,0,.77-2.118,3.955,3.955,0,0,0,1.862-.8,4.626,4.626,0,0,0,3.43-.01,6.611,6.611,0,0,0,5.282.247a4.884,4.884,0,0,0,1.9-.333,4.764,4.764,0,0,0,1.568-1,4.868,4.868,0,0,0,1.073-1.53,4.585,4.585,0,0,0,.4-1.91A5.522,5.522,0,0,0,9.947-6.28a4.222,4.222,0,0,0-.8-1.434,3.839,3.839,0,0,0-1.283-.969,4.029,4.029,0,0,0-1.748-.361,4,4,0,0,0-1.425.238,3.351,3.351,0,0,0-1.178.788l-.038-.038.532-3.021Z" transform="translate(12 380)" fill="gray"/>
      <g id="リピートグリッド_150" data-name="リピートグリッド 150" transform="translate(390.397 902.379) rotate(180)" clip-path="url(#clip-path)">
        <g transform="translate(-441.397 -388.39)">
          <path id="パス_111" data-name="パス 111" d="M11325.9,3525.055v503.989" transform="translate(11767.795 4417.434) rotate(180)" fill="none" stroke="#d9d9d9" stroke-width="2"/>
        </g>
        <g transform="translate(-346.397 -388.39)">
          <path id="パス_111-2" data-name="パス 111" d="M11325.9,3525.055v503.989" transform="translate(11767.795 4417.434) rotate(180)" fill="none" stroke="#d9d9d9" stroke-width="2"/>
        </g>
        <g transform="translate(-251.397 -388.39)">
          <path id="パス_111-3" data-name="パス 111" d="M11325.9,3525.055v503.989" transform="translate(11767.795 4417.434) rotate(180)" fill="none" stroke="#d9d9d9" stroke-width="2"/>
        </g>
        <g transform="translate(-156.397 -388.39)">
          <path id="パス_111-4" data-name="パス 111" d="M11325.9,3525.055v503.989" transform="translate(11767.795 4417.434) rotate(180)" fill="none" stroke="#d9d9d9" stroke-width="2"/>
        </g>
        <g transform="translate(-61.397 -388.39)">
          <path id="パス_111-5" data-name="パス 111" d="M11325.9,3525.055v503.989" transform="translate(11767.795 4417.434) rotate(180)" fill="none" stroke="#d9d9d9" stroke-width="2"/>
        </g>
      </g>
    </g>
    <path id="パス_233" data-name="パス 233" d="M-33.672-9.96h4.9a2.683,2.683,0,0,0,1.8-.612,2.187,2.187,0,0,0,.72-1.764A2.234,2.234,0,0,0-26.9-14.16a2.9,2.9,0,0,0-1.872-.528h-4.9Zm-3-7.176h8.328a5.962,5.962,0,0,1,3.7,1.056,3.752,3.752,0,0,1,1.392,3.192,3.819,3.819,0,0,1-.636,2.22A4.085,4.085,0,0,1-25.7-9.24v.048a3.745,3.745,0,0,1,2.4,1.5,4.958,4.958,0,0,1,.816,2.916,4.908,4.908,0,0,1-.36,1.884A3.84,3.84,0,0,1-23.976-1.38,5.694,5.694,0,0,1-25.944-.372,9.7,9.7,0,0,1-28.8,0h-7.872Zm3,14.688h5.3a2.988,2.988,0,0,0,2.124-.708,2.612,2.612,0,0,0,.756-2,2.5,2.5,0,0,0-.756-1.956A3.054,3.054,0,0,0-28.368-7.8h-5.3ZM-10.92-7.3A4.412,4.412,0,0,0-11.2-8.544a3.325,3.325,0,0,0-.624-1.044,3.09,3.09,0,0,0-.96-.72,2.828,2.828,0,0,0-1.26-.276,3.288,3.288,0,0,0-1.308.252,2.991,2.991,0,0,0-1.008.7,3.442,3.442,0,0,0-.672,1.044A3.642,3.642,0,0,0-17.3-7.3ZM-17.3-5.5A4.765,4.765,0,0,0-17.1-4.1a3.43,3.43,0,0,0,.612,1.176,2.95,2.95,0,0,0,1.032.8,3.405,3.405,0,0,0,1.488.3,3.286,3.286,0,0,0,1.932-.516,3.05,3.05,0,0,0,1.092-1.548h2.592a5.159,5.159,0,0,1-.744,1.8A5.177,5.177,0,0,1-10.368-.756,5.49,5.49,0,0,1-12.036.06a6.714,6.714,0,0,1-1.932.276,6.57,6.57,0,0,1-2.592-.48,5.358,5.358,0,0,1-1.908-1.344,5.7,5.7,0,0,1-1.176-2.064,8.385,8.385,0,0,1-.4-2.64A7.469,7.469,0,0,1-19.62-8.7a6.42,6.42,0,0,1,1.2-2.088,5.739,5.739,0,0,1,1.884-1.428,5.714,5.714,0,0,1,2.5-.528,5.561,5.561,0,0,1,2.628.612,5.767,5.767,0,0,1,1.932,1.62A6.559,6.559,0,0,1-8.364-8.2a7.1,7.1,0,0,1,.18,2.7Zm10.7-6.912h2.04V-13.44a5.292,5.292,0,0,1,.288-1.908A2.711,2.711,0,0,1-3.5-16.476,2.529,2.529,0,0,1-2.412-17a6.076,6.076,0,0,1,1.284-.132,7.834,7.834,0,0,1,1.92.168v2.136a3.917,3.917,0,0,0-.564-.108,6.036,6.036,0,0,0-.708-.036,1.669,1.669,0,0,0-.948.264,1.157,1.157,0,0,0-.4,1.032v1.272H.5v2.04H-1.824V0H-4.56V-10.368H-6.6ZM8.592.336A6.757,6.757,0,0,1,5.94-.156,5.655,5.655,0,0,1,3.972-1.512,5.8,5.8,0,0,1,2.748-3.576a7.945,7.945,0,0,1-.42-2.64,7.869,7.869,0,0,1,.42-2.616A5.8,5.8,0,0,1,3.972-10.9,5.655,5.655,0,0,1,5.94-12.252a6.757,6.757,0,0,1,2.652-.492,6.757,6.757,0,0,1,2.652.492A5.655,5.655,0,0,1,13.212-10.9a5.8,5.8,0,0,1,1.224,2.064,7.869,7.869,0,0,1,.42,2.616,7.945,7.945,0,0,1-.42,2.64,5.8,5.8,0,0,1-1.224,2.064A5.655,5.655,0,0,1,11.244-.156,6.757,6.757,0,0,1,8.592.336Zm0-2.16a3.139,3.139,0,0,0,1.584-.384,3.338,3.338,0,0,0,1.1-1.008,4.4,4.4,0,0,0,.636-1.4,6.281,6.281,0,0,0,.2-1.6,6.328,6.328,0,0,0-.2-1.584,4.246,4.246,0,0,0-.636-1.4,3.39,3.39,0,0,0-1.1-1,3.139,3.139,0,0,0-1.584-.384,3.139,3.139,0,0,0-1.584.384,3.39,3.39,0,0,0-1.1,1,4.246,4.246,0,0,0-.636,1.4,6.328,6.328,0,0,0-.2,1.584,6.282,6.282,0,0,0,.2,1.6,4.4,4.4,0,0,0,.636,1.4,3.338,3.338,0,0,0,1.1,1.008A3.139,3.139,0,0,0,8.592-1.824Zm9.264-10.584h2.568v2.4h.048a2.769,2.769,0,0,1,.468-.984,4.563,4.563,0,0,1,.84-.876,4.245,4.245,0,0,1,1.092-.636,3.269,3.269,0,0,1,1.224-.24,5.936,5.936,0,0,1,.66.024l.372.048v2.64q-.288-.048-.588-.084a4.933,4.933,0,0,0-.588-.036,3.145,3.145,0,0,0-1.308.276,3,3,0,0,0-1.068.816,4,4,0,0,0-.72,1.332A5.765,5.765,0,0,0,20.592-5.9V0H17.856ZM35.112-7.3a4.412,4.412,0,0,0-.276-1.248,3.325,3.325,0,0,0-.624-1.044,3.09,3.09,0,0,0-.96-.72,2.828,2.828,0,0,0-1.26-.276,3.288,3.288,0,0,0-1.308.252,2.991,2.991,0,0,0-1.008.7A3.442,3.442,0,0,0,29-8.592a3.642,3.642,0,0,0-.276,1.3ZM28.728-5.5a4.765,4.765,0,0,0,.2,1.392,3.43,3.43,0,0,0,.612,1.176,2.95,2.95,0,0,0,1.032.8,3.405,3.405,0,0,0,1.488.3A3.286,3.286,0,0,0,34-2.34a3.05,3.05,0,0,0,1.092-1.548H37.68a5.159,5.159,0,0,1-.744,1.8A5.177,5.177,0,0,1,35.664-.756,5.49,5.49,0,0,1,34,.06a6.714,6.714,0,0,1-1.932.276,6.57,6.57,0,0,1-2.592-.48,5.358,5.358,0,0,1-1.908-1.344,5.7,5.7,0,0,1-1.176-2.064,8.385,8.385,0,0,1-.4-2.64,7.469,7.469,0,0,1,.42-2.508,6.42,6.42,0,0,1,1.2-2.088A5.739,5.739,0,0,1,29.5-12.216a5.714,5.714,0,0,1,2.5-.528,5.561,5.561,0,0,1,2.628.612,5.767,5.767,0,0,1,1.932,1.62A6.559,6.559,0,0,1,37.668-8.2a7.1,7.1,0,0,1,.18,2.7Z" transform="translate(487 324)" fill="#666"/>
  </g>
</svg>
