<svg xmlns="http://www.w3.org/2000/svg" width="74.574" height="17.472" viewBox="0 0 74.574 17.472">
  <path id="before" d="M-33.672-9.96h4.9a2.683,2.683,0,0,0,1.8-.612,2.187,2.187,0,0,0,.72-1.764A2.234,2.234,0,0,0-26.9-14.16a2.9,2.9,0,0,0-1.872-.528h-4.9Zm-3-7.176h8.328a5.962,5.962,0,0,1,3.7,1.056,3.752,3.752,0,0,1,1.392,3.192,3.819,3.819,0,0,1-.636,2.22A4.085,4.085,0,0,1-25.7-9.24v.048a3.745,3.745,0,0,1,2.4,1.5,4.958,4.958,0,0,1,.816,2.916,4.908,4.908,0,0,1-.36,1.884A3.84,3.84,0,0,1-23.976-1.38,5.694,5.694,0,0,1-25.944-.372,9.7,9.7,0,0,1-28.8,0h-7.872Zm3,14.688h5.3a2.988,2.988,0,0,0,2.124-.708,2.612,2.612,0,0,0,.756-2,2.5,2.5,0,0,0-.756-1.956A3.054,3.054,0,0,0-28.368-7.8h-5.3ZM-10.92-7.3A4.412,4.412,0,0,0-11.2-8.544a3.325,3.325,0,0,0-.624-1.044,3.09,3.09,0,0,0-.96-.72,2.828,2.828,0,0,0-1.26-.276,3.288,3.288,0,0,0-1.308.252,2.991,2.991,0,0,0-1.008.7,3.442,3.442,0,0,0-.672,1.044A3.642,3.642,0,0,0-17.3-7.3ZM-17.3-5.5A4.765,4.765,0,0,0-17.1-4.1a3.43,3.43,0,0,0,.612,1.176,2.95,2.95,0,0,0,1.032.8,3.405,3.405,0,0,0,1.488.3,3.286,3.286,0,0,0,1.932-.516,3.05,3.05,0,0,0,1.092-1.548h2.592a5.159,5.159,0,0,1-.744,1.8A5.177,5.177,0,0,1-10.368-.756,5.49,5.49,0,0,1-12.036.06a6.714,6.714,0,0,1-1.932.276,6.57,6.57,0,0,1-2.592-.48,5.358,5.358,0,0,1-1.908-1.344,5.7,5.7,0,0,1-1.176-2.064,8.385,8.385,0,0,1-.4-2.64A7.469,7.469,0,0,1-19.62-8.7a6.42,6.42,0,0,1,1.2-2.088,5.739,5.739,0,0,1,1.884-1.428,5.714,5.714,0,0,1,2.5-.528,5.561,5.561,0,0,1,2.628.612,5.767,5.767,0,0,1,1.932,1.62A6.559,6.559,0,0,1-8.364-8.2a7.1,7.1,0,0,1,.18,2.7Zm10.7-6.912h2.04V-13.44a5.292,5.292,0,0,1,.288-1.908A2.711,2.711,0,0,1-3.5-16.476,2.529,2.529,0,0,1-2.412-17a6.076,6.076,0,0,1,1.284-.132,7.834,7.834,0,0,1,1.92.168v2.136a3.917,3.917,0,0,0-.564-.108,6.036,6.036,0,0,0-.708-.036,1.669,1.669,0,0,0-.948.264,1.157,1.157,0,0,0-.4,1.032v1.272H.5v2.04H-1.824V0H-4.56V-10.368H-6.6ZM8.592.336A6.757,6.757,0,0,1,5.94-.156,5.655,5.655,0,0,1,3.972-1.512,5.8,5.8,0,0,1,2.748-3.576a7.945,7.945,0,0,1-.42-2.64,7.869,7.869,0,0,1,.42-2.616A5.8,5.8,0,0,1,3.972-10.9,5.655,5.655,0,0,1,5.94-12.252a6.757,6.757,0,0,1,2.652-.492,6.757,6.757,0,0,1,2.652.492A5.655,5.655,0,0,1,13.212-10.9a5.8,5.8,0,0,1,1.224,2.064,7.869,7.869,0,0,1,.42,2.616,7.945,7.945,0,0,1-.42,2.64,5.8,5.8,0,0,1-1.224,2.064A5.655,5.655,0,0,1,11.244-.156,6.757,6.757,0,0,1,8.592.336Zm0-2.16a3.139,3.139,0,0,0,1.584-.384,3.338,3.338,0,0,0,1.1-1.008,4.4,4.4,0,0,0,.636-1.4,6.281,6.281,0,0,0,.2-1.6,6.328,6.328,0,0,0-.2-1.584,4.246,4.246,0,0,0-.636-1.4,3.39,3.39,0,0,0-1.1-1,3.139,3.139,0,0,0-1.584-.384,3.139,3.139,0,0,0-1.584.384,3.39,3.39,0,0,0-1.1,1,4.246,4.246,0,0,0-.636,1.4,6.328,6.328,0,0,0-.2,1.584,6.282,6.282,0,0,0,.2,1.6,4.4,4.4,0,0,0,.636,1.4,3.338,3.338,0,0,0,1.1,1.008A3.139,3.139,0,0,0,8.592-1.824Zm9.264-10.584h2.568v2.4h.048a2.769,2.769,0,0,1,.468-.984,4.563,4.563,0,0,1,.84-.876,4.245,4.245,0,0,1,1.092-.636,3.269,3.269,0,0,1,1.224-.24,5.936,5.936,0,0,1,.66.024l.372.048v2.64q-.288-.048-.588-.084a4.933,4.933,0,0,0-.588-.036,3.145,3.145,0,0,0-1.308.276,3,3,0,0,0-1.068.816,4,4,0,0,0-.72,1.332A5.765,5.765,0,0,0,20.592-5.9V0H17.856ZM35.112-7.3a4.412,4.412,0,0,0-.276-1.248,3.325,3.325,0,0,0-.624-1.044,3.09,3.09,0,0,0-.96-.72,2.828,2.828,0,0,0-1.26-.276,3.288,3.288,0,0,0-1.308.252,2.991,2.991,0,0,0-1.008.7A3.442,3.442,0,0,0,29-8.592a3.642,3.642,0,0,0-.276,1.3ZM28.728-5.5a4.765,4.765,0,0,0,.2,1.392,3.43,3.43,0,0,0,.612,1.176,2.95,2.95,0,0,0,1.032.8,3.405,3.405,0,0,0,1.488.3A3.286,3.286,0,0,0,34-2.34a3.05,3.05,0,0,0,1.092-1.548H37.68a5.159,5.159,0,0,1-.744,1.8A5.177,5.177,0,0,1,35.664-.756,5.49,5.49,0,0,1,34,.06a6.714,6.714,0,0,1-1.932.276,6.57,6.57,0,0,1-2.592-.48,5.358,5.358,0,0,1-1.908-1.344,5.7,5.7,0,0,1-1.176-2.064,8.385,8.385,0,0,1-.4-2.64,7.469,7.469,0,0,1,.42-2.508,6.42,6.42,0,0,1,1.2-2.088A5.739,5.739,0,0,1,29.5-12.216a5.714,5.714,0,0,1,2.5-.528,5.561,5.561,0,0,1,2.628.612,5.767,5.767,0,0,1,1.932,1.62A6.559,6.559,0,0,1,37.668-8.2a7.1,7.1,0,0,1,.18,2.7Z" transform="translate(36.672 17.136)" fill="#666"/>
</svg>
