<svg xmlns="http://www.w3.org/2000/svg" width="67.261" height="16.016" viewBox="0 0 67.261 16.016">
  <path id="before" d="M-30.316-9.13h4.488a2.459,2.459,0,0,0,1.65-.561,2,2,0,0,0,.66-1.617,2.048,2.048,0,0,0-.594-1.672,2.658,2.658,0,0,0-1.716-.484h-4.488Zm-2.75-6.578h7.634a5.465,5.465,0,0,1,3.388.968,3.439,3.439,0,0,1,1.276,2.926,3.5,3.5,0,0,1-.583,2.035A3.745,3.745,0,0,1-23.012-8.47v.044a3.433,3.433,0,0,1,2.2,1.375,4.545,4.545,0,0,1,.748,2.673,4.5,4.5,0,0,1-.33,1.727,3.52,3.52,0,0,1-1.034,1.386,5.22,5.22,0,0,1-1.8.924A8.893,8.893,0,0,1-25.85,0h-7.216Zm2.75,13.464h4.862a2.739,2.739,0,0,0,1.947-.649,2.394,2.394,0,0,0,.693-1.837,2.294,2.294,0,0,0-.693-1.793,2.8,2.8,0,0,0-1.947-.627h-4.862ZM-9.68-6.688a4.044,4.044,0,0,0-.253-1.144,3.048,3.048,0,0,0-.572-.957,2.833,2.833,0,0,0-.88-.66A2.593,2.593,0,0,0-12.54-9.7a3.014,3.014,0,0,0-1.2.231,2.742,2.742,0,0,0-.924.638,3.155,3.155,0,0,0-.616.957,3.339,3.339,0,0,0-.253,1.188Zm-5.852,1.65a4.368,4.368,0,0,0,.187,1.276,3.144,3.144,0,0,0,.561,1.078,2.7,2.7,0,0,0,.946.737,3.121,3.121,0,0,0,1.364.275A3.013,3.013,0,0,0-10.7-2.145a2.8,2.8,0,0,0,1-1.419h2.376a4.729,4.729,0,0,1-.682,1.65A4.745,4.745,0,0,1-9.174-.693,5.033,5.033,0,0,1-10.7.055a6.155,6.155,0,0,1-1.771.253,6.022,6.022,0,0,1-2.376-.44A4.912,4.912,0,0,1-16.6-1.364a5.228,5.228,0,0,1-1.078-1.892,7.686,7.686,0,0,1-.363-2.42,6.846,6.846,0,0,1,.385-2.3,5.885,5.885,0,0,1,1.1-1.914A5.261,5.261,0,0,1-14.828-11.2a5.238,5.238,0,0,1,2.288-.484,5.1,5.1,0,0,1,2.409.561A5.286,5.286,0,0,1-8.36-9.636,6.013,6.013,0,0,1-7.337-7.513a6.508,6.508,0,0,1,.165,2.475Zm9.592-6.336h1.87v-.946a4.851,4.851,0,0,1,.264-1.749A2.485,2.485,0,0,1-3.1-15.1a2.319,2.319,0,0,1,1-.484,5.57,5.57,0,0,1,1.177-.121,7.181,7.181,0,0,1,1.76.154V-13.6a3.59,3.59,0,0,0-.517-.1,5.532,5.532,0,0,0-.649-.033,1.53,1.53,0,0,0-.869.242,1.061,1.061,0,0,0-.363.946v1.166H.572V-9.5H-1.562V0H-4.07V-9.5H-5.94ZM7.766.308A6.194,6.194,0,0,1,5.335-.143a5.184,5.184,0,0,1-1.8-1.243A5.316,5.316,0,0,1,2.409-3.278,7.283,7.283,0,0,1,2.024-5.7a7.213,7.213,0,0,1,.385-2.4A5.316,5.316,0,0,1,3.531-9.988a5.184,5.184,0,0,1,1.8-1.243,6.194,6.194,0,0,1,2.431-.451,6.194,6.194,0,0,1,2.431.451A5.184,5.184,0,0,1,12-9.988,5.316,5.316,0,0,1,13.123-8.1a7.213,7.213,0,0,1,.385,2.4,7.283,7.283,0,0,1-.385,2.42A5.316,5.316,0,0,1,12-1.386,5.184,5.184,0,0,1,10.2-.143,6.194,6.194,0,0,1,7.766.308Zm0-1.98a2.877,2.877,0,0,0,1.452-.352,3.06,3.06,0,0,0,1.012-.924,4.033,4.033,0,0,0,.583-1.287A5.758,5.758,0,0,0,11-5.7a5.8,5.8,0,0,0-.187-1.452,3.892,3.892,0,0,0-.583-1.287A3.108,3.108,0,0,0,9.218-9.35,2.877,2.877,0,0,0,7.766-9.7a2.877,2.877,0,0,0-1.452.352A3.108,3.108,0,0,0,5.3-8.437,3.892,3.892,0,0,0,4.719-7.15,5.8,5.8,0,0,0,4.532-5.7a5.758,5.758,0,0,0,.187,1.463A4.033,4.033,0,0,0,5.3-2.948a3.06,3.06,0,0,0,1.012.924A2.877,2.877,0,0,0,7.766-1.672Zm8.272-9.7h2.354v2.2h.044a2.539,2.539,0,0,1,.429-.9,4.183,4.183,0,0,1,.77-.8,3.891,3.891,0,0,1,1-.583,3,3,0,0,1,1.122-.22,5.441,5.441,0,0,1,.6.022l.341.044V-9.2q-.264-.044-.539-.077a4.522,4.522,0,0,0-.539-.033,2.883,2.883,0,0,0-1.2.253,2.754,2.754,0,0,0-.979.748,3.666,3.666,0,0,0-.66,1.221,5.284,5.284,0,0,0-.242,1.672V0H16.038Zm15.6,4.686a4.044,4.044,0,0,0-.253-1.144,3.048,3.048,0,0,0-.572-.957,2.833,2.833,0,0,0-.88-.66A2.592,2.592,0,0,0,28.776-9.7a3.014,3.014,0,0,0-1.2.231,2.742,2.742,0,0,0-.924.638,3.155,3.155,0,0,0-.616.957,3.339,3.339,0,0,0-.253,1.188Zm-5.852,1.65a4.368,4.368,0,0,0,.187,1.276,3.144,3.144,0,0,0,.561,1.078,2.7,2.7,0,0,0,.946.737,3.121,3.121,0,0,0,1.364.275,3.013,3.013,0,0,0,1.771-.473,2.8,2.8,0,0,0,1-1.419H33.99a4.729,4.729,0,0,1-.682,1.65A4.745,4.745,0,0,1,32.142-.693a5.033,5.033,0,0,1-1.529.748,6.155,6.155,0,0,1-1.771.253,6.022,6.022,0,0,1-2.376-.44,4.912,4.912,0,0,1-1.749-1.232,5.228,5.228,0,0,1-1.078-1.892,7.686,7.686,0,0,1-.363-2.42,6.846,6.846,0,0,1,.385-2.3,5.885,5.885,0,0,1,1.1-1.914A5.261,5.261,0,0,1,26.488-11.2a5.238,5.238,0,0,1,2.288-.484,5.1,5.1,0,0,1,2.409.561,5.286,5.286,0,0,1,1.771,1.485,6.013,6.013,0,0,1,1.023,2.123,6.508,6.508,0,0,1,.165,2.475Z" transform="translate(33.066 15.708)" fill="#666"/>
</svg>
