<svg xmlns="http://www.w3.org/2000/svg" width="43.146" height="33.381" viewBox="0 0 43.146 33.381">
  <g id="グループ_194" data-name="グループ 194" transform="translate(-1484.452 -1026.879)">
    <g id="グループ_87" data-name="グループ 87" transform="translate(-117 -8.5)">
      <g id="グループ_85" data-name="グループ 85" transform="translate(1625.404 1037.5)">
        <g id="グループ_84" data-name="グループ 84" transform="translate(12.388 12.342) rotate(180)">
          <path id="パス_101" data-name="パス 101" d="M0,0H10.31" transform="translate(0 5.979)" fill="none" stroke="gray" stroke-linecap="round" stroke-width="3"/>
          <path id="パス_102" data-name="パス 102" d="M0,12.342,6.171,6.171,0,0" transform="translate(6.217)" fill="none" stroke="gray" stroke-linecap="round" stroke-linejoin="round" stroke-width="3"/>
        </g>
      </g>
      <g id="グループ_86" data-name="グループ 86" transform="translate(1606.405 1037.5)">
        <g id="グループ_84-2" data-name="グループ 84" transform="translate(0 0)">
          <path id="パス_101-2" data-name="パス 101" d="M0,0H10.31" transform="translate(0 5.979)" fill="none" stroke="gray" stroke-linecap="round" stroke-width="3"/>
          <path id="パス_102-2" data-name="パス 102" d="M0,12.342,6.171,6.171,0,0" transform="translate(6.217)" fill="none" stroke="gray" stroke-linecap="round" stroke-linejoin="round" stroke-width="3"/>
        </g>
      </g>
    </g>
    <path id="パス_231" data-name="パス 231" d="M-21.547-4.6a5.139,5.139,0,0,1,1.314-3.777,3.915,3.915,0,0,1,2.907-1.155,3.931,3.931,0,0,1,3.453,1.549,3.353,3.353,0,0,1,.647,1.746h-1.955a2.641,2.641,0,0,0-.489-1.016,1.988,1.988,0,0,0-1.581-.609A1.959,1.959,0,0,0-18.932-7a4.135,4.135,0,0,0-.616,2.434A3.629,3.629,0,0,0-18.9-2.212a2.056,2.056,0,0,0,1.654.784A1.891,1.891,0,0,0-15.676-2.1a2.923,2.923,0,0,0,.5-1.085h1.936A4.2,4.2,0,0,1-14.543-.7,3.8,3.8,0,0,1-17.218.26a4.036,4.036,0,0,1-3.174-1.295A5.183,5.183,0,0,1-21.547-4.6Zm9.664-4.754h1.955v7.674h4.634V0h-6.589ZM.067-1.4a2.233,2.233,0,0,0,1.844-.857,3.829,3.829,0,0,0,.682-2.437,3.832,3.832,0,0,0-.682-2.434,2.23,2.23,0,0,0-1.844-.86,2.26,2.26,0,0,0-1.854.857,3.792,3.792,0,0,0-.692,2.438,3.792,3.792,0,0,0,.692,2.438A2.26,2.26,0,0,0,.067-1.4ZM4.548-4.691A5.06,5.06,0,0,1,3.133-.832,4.08,4.08,0,0,1,.067.26,4.08,4.08,0,0,1-3-.832,5.047,5.047,0,0,1-4.421-4.691,4.948,4.948,0,0,1-3-8.55,4.08,4.08,0,0,1,.067-9.642,4.08,4.08,0,0,1,3.133-8.55,4.961,4.961,0,0,1,4.548-4.691Zm2.777,1.8a1.921,1.921,0,0,0,.349.958,2.009,2.009,0,0,0,1.631.578A3.443,3.443,0,0,0,10.429-1.5a1.086,1.086,0,0,0,.819-1.085.8.8,0,0,0-.406-.717,4.369,4.369,0,0,0-1.276-.438l-.99-.222a6.257,6.257,0,0,1-2.019-.717,2.281,2.281,0,0,1-.946-2.025A2.7,2.7,0,0,1,6.526-8.8a3.865,3.865,0,0,1,2.685-.832,4.082,4.082,0,0,1,2.523.784A2.8,2.8,0,0,1,12.829-6.57H10.95a1.342,1.342,0,0,0-.736-1.2A2.469,2.469,0,0,0,9.077-8a2.121,2.121,0,0,0-1.206.3.97.97,0,0,0-.451.851.805.805,0,0,0,.444.749,5.439,5.439,0,0,0,1.219.387l1.612.387a4.168,4.168,0,0,1,1.6.679,2.288,2.288,0,0,1,.838,1.911,2.7,2.7,0,0,1-.981,2.13A4.109,4.109,0,0,1,9.382.241,4.494,4.494,0,0,1,6.506-.594,2.774,2.774,0,0,1,5.459-2.888ZM21.37-7.7H16.418v1.987h4.545v1.625H16.418v2.406H21.6V0h-7.09V-9.356H21.37Z" transform="translate(1506 1060)" fill="gray"/>
  </g>
</svg>
