<svg xmlns="http://www.w3.org/2000/svg" width="20.845" height="12" viewBox="0 0 20.845 12">
  <g id="down3" transform="translate(-14049.758 -2097.151)">
    <path id="パス_258" data-name="パス 258" d="M.848-2.464A2.325,2.325,0,0,0,1.7-.72,3.682,3.682,0,0,0,4.344.1,3.275,3.275,0,0,0,7.936-3.248a2.706,2.706,0,0,0-1.48-2.64,2.511,2.511,0,0,0,1.384-2.4,3.172,3.172,0,0,0-3.48-3.2A3.519,3.519,0,0,0,1.9-10.68a2.631,2.631,0,0,0-.672,1A2.238,2.238,0,0,0,1.08-8.9a.936.936,0,0,0,.968.984.836.836,0,0,0,.632-.2,1.383,1.383,0,0,0,.392-.632A1.193,1.193,0,0,1,4.344-9.6a1.321,1.321,0,0,1,1.4,1.424A1.348,1.348,0,0,1,4.3-6.736a1.426,1.426,0,0,0-.592.128.838.838,0,0,0-.432.776.843.843,0,0,0,.432.784A1.311,1.311,0,0,0,4.3-4.92,1.435,1.435,0,0,1,5.84-3.36,1.455,1.455,0,0,1,4.328-1.792,1.252,1.252,0,0,1,2.912-2.7a1.373,1.373,0,0,0-.392-.64.858.858,0,0,0-.64-.208,1,1,0,0,0-.76.312A1.1,1.1,0,0,0,.848-2.464Z" transform="translate(14062.667 2109)" fill="#00d7ff"/>
    <g id="arrow" transform="translate(15079.667 2982.301) rotate(180)">
      <path id="パス_228" data-name="パス 228" d="M11909.577,3941.15v-9.625" transform="translate(-10886.077 -3057)" fill="none" stroke="#00d7ff" stroke-linecap="round" stroke-width="2"/>
      <path id="パス_229" data-name="パス 229" d="M11904.883,3937.15l4.974-6,5.026,6" transform="translate(-10886.383 -3057)" fill="none" stroke="#00d7ff" stroke-linecap="round" stroke-linejoin="round" stroke-width="2"/>
    </g>
  </g>
</svg>
