<svg xmlns="http://www.w3.org/2000/svg" width="35.369" height="33.381" viewBox="0 0 35.369 33.381">
  <g id="グループ_196" data-name="グループ 196" transform="translate(-14528.221 -4184.879)">
    <g id="グループ_195" data-name="グループ 195" transform="translate(12924 3149.5)">
      <g id="グループ_85" data-name="グループ 85" transform="translate(3237.196 2092.342) rotate(180)">
        <g id="グループ_84" data-name="グループ 84" transform="translate(1614.039 1054.842) rotate(180)">
          <path id="パス_101" data-name="パス 101" d="M0,0H10.31" transform="translate(2.247 6.363)" fill="none" stroke="gray" stroke-linecap="round" stroke-width="3"/>
          <path id="パス_102" data-name="パス 102" d="M0,0,6.171,6.171,0,12.342" transform="translate(8.463 0)" fill="none" stroke="gray" stroke-linecap="round" stroke-linejoin="round" stroke-width="3"/>
        </g>
      </g>
      <g id="グループ_86" data-name="グループ 86" transform="translate(7 -5)">
        <g id="グループ_84-2" data-name="グループ 84" transform="translate(1614.039 1054.842) rotate(180)">
          <path id="パス_101-2" data-name="パス 101" d="M0,0H10.31" transform="translate(2.247 6.363)" fill="none" stroke="gray" stroke-linecap="round" stroke-width="3"/>
          <path id="パス_102-2" data-name="パス 102" d="M0,0,6.171,6.171,0,12.342" transform="translate(8.463 0)" fill="none" stroke="gray" stroke-linecap="round" stroke-linejoin="round" stroke-width="3"/>
        </g>
      </g>
    </g>
    <path id="パス_232" data-name="パス 232" d="M-13.292-1.4a2.233,2.233,0,0,0,1.844-.857,3.829,3.829,0,0,0,.682-2.437,3.832,3.832,0,0,0-.682-2.434,2.23,2.23,0,0,0-1.844-.86,2.26,2.26,0,0,0-1.854.857,3.792,3.792,0,0,0-.692,2.438,3.792,3.792,0,0,0,.692,2.438A2.26,2.26,0,0,0-13.292-1.4Zm4.481-3.294A5.06,5.06,0,0,1-10.226-.832,4.08,4.08,0,0,1-13.292.26,4.08,4.08,0,0,1-16.358-.832,5.047,5.047,0,0,1-17.78-4.691,4.948,4.948,0,0,1-16.358-8.55a4.08,4.08,0,0,1,3.066-1.092A4.08,4.08,0,0,1-10.226-8.55,4.961,4.961,0,0,1-8.811-4.691Zm6.76-1.688A1.266,1.266,0,0,0-2.434-7.42,1.667,1.667,0,0,0-3.51-7.731H-5.332v2.755H-3.51a1.58,1.58,0,0,0,1.076-.336A1.347,1.347,0,0,0-2.05-6.379Zm1.936-.013A2.872,2.872,0,0,1-.952-4.05a3.69,3.69,0,0,1-2.393.686H-5.332V0H-7.274V-9.356H-3.2a3.319,3.319,0,0,1,2.247.724A2.8,2.8,0,0,1-.114-6.392ZM8.271-7.7H3.32v1.987H7.865v1.625H3.32v2.406H8.5V0H1.409V-9.356H8.271Zm1.72-1.657h2.05l3.726,6.532V-9.356h1.822V0H15.634L11.813-6.646V0H9.991Z" transform="translate(14546 4218)" fill="gray"/>
  </g>
</svg>
