<svg id="コンポーネント_19_23" data-name="コンポーネント 19 – 23" xmlns="http://www.w3.org/2000/svg" width="86" height="668" viewBox="0 0 86 668">
  <path id="パス_87" data-name="パス 87" d="M2634,5758.264V5191" transform="translate(-2591 -5136.999)" fill="none" stroke="#b3b3b3" stroke-width="3"/>
  <g id="コンポーネント_15_11" data-name="コンポーネント 15 – 11">
    <rect id="長方形_83" data-name="長方形 83" width="86" height="54" rx="4" fill="#666"/>
    <path id="パス_245" data-name="パス 245" d="M-16.528-17.456h-.146q-.061.562-.2,1.233h.415l2.832-.049q.2,0,.232.061a.456.456,0,0,1,.037.232v1.257a.415.415,0,0,1-.049.256.42.42,0,0,1-.22.037l-2.625-.049a12.1,12.1,0,0,0,2.869,1.819,4.661,4.661,0,0,0-.793.977,2.4,2.4,0,0,1-.305.452h2.527l-.1-.146a4.492,4.492,0,0,0-1.05-.952,7.263,7.263,0,0,0,3.345-2.148q-1.074.012-1.917.037l-.574.012a.445.445,0,0,1-.269-.049.492.492,0,0,1-.037-.244v-1.257q0-.293.305-.293l2.966.049H-8.9a7.894,7.894,0,0,0,.232-1.233H-8.9l-2.722.061a.386.386,0,0,1-.244-.049.456.456,0,0,1-.037-.232v-1.318q0-.208.049-.244a.456.456,0,0,1,.232-.037l2.722.049h.305v-.488q0-.647-.049-1.257,1.44.073,2.368.2.378.073.378.256a.937.937,0,0,1-.122.366,2.168,2.168,0,0,0-.208.928H-5.3l2.722-.049a.386.386,0,0,1,.244.049.456.456,0,0,1,.037.232v1.318q0,.208-.049.244a.456.456,0,0,1-.232.037L-5.3-17.456H-6.323a8.729,8.729,0,0,1-.2,1.233h1.843l2.979-.049q.2,0,.232.061a.456.456,0,0,1,.037.232v1.257a.415.415,0,0,1-.049.256.381.381,0,0,1-.22.037l-2.979-.049h-.769a9.811,9.811,0,0,0,4.517,2.8,4.677,4.677,0,0,0-.94,1.306q-.305.6-.5.6A1.26,1.26,0,0,1-2.893-10a12.818,12.818,0,0,1-1.831-1.135l-.049,2.563V-4.5l.049,2.417a.4.4,0,0,1-.043.238A.4.4,0,0,1-5-1.807l-3.32-.049.183.073A19.465,19.465,0,0,0-1.343-.11,7.072,7.072,0,0,0-2.551,1.44q-.305.5-.574.5a3.23,3.23,0,0,1-.6-.049A18.97,18.97,0,0,1-7.532.879,15.546,15.546,0,0,1-10.547-.586q-.159-.1-.159-.159,0-.085.281-.208l1.9-.9h-8.533q.818.317,2.124.928.354.134.354.342t-.378.305a4.969,4.969,0,0,0-1.025.452,18.73,18.73,0,0,1-5.7,1.746,3.577,3.577,0,0,1-.525.049q-.269,0-.6-.525A6.146,6.146,0,0,0-23.926,0,20.935,20.935,0,0,0-18.3-1.233a5.469,5.469,0,0,0,1.123-.623q-1.27.012-2.258.037-.073,0-.5.012H-20.1q-.2,0-.232-.049a.456.456,0,0,1-.037-.232l.049-2.417V-8.569l-.049-2.332a13.089,13.089,0,0,1-1.55.928,2.134,2.134,0,0,1-.549.22q-.208,0-.549-.549a4.7,4.7,0,0,0-1.1-1.233,7.225,7.225,0,0,0,4.2-2.942H-20.4l-2.832.049a.415.415,0,0,1-.256-.049.492.492,0,0,1-.037-.244v-1.257a.415.415,0,0,1,.049-.256.492.492,0,0,1,.244-.037l2.832.049h1.2a7.894,7.894,0,0,0,.232-1.233h-.83l-2.625.061a.386.386,0,0,1-.244-.049.456.456,0,0,1-.037-.232v-1.318q0-.208.061-.244a.381.381,0,0,1,.22-.037l2.625.049h.928q.012-.208.012-.427,0-.513-.061-1.318,1.611.085,2.271.171.427.049.427.256a1,1,0,0,1-.146.452,2.267,2.267,0,0,0-.183.867h.049l2.6-.049a.386.386,0,0,1,.244.049.456.456,0,0,1,.037.232v1.318q0,.208-.049.244a.456.456,0,0,1-.232.037ZM-7.2-3.552V-4.6H-17.9v1.05Zm0-6.006H-17.9V-8.5H-7.2ZM-17.9-6.03H-7.2V-7.068H-17.9Zm7.251-5.2h2.173l3.528-.049a9.976,9.976,0,0,1-2.527-2.673A8.014,8.014,0,0,1-10.645-11.23Zm-9.253-.024,3.247.024h1.6L-15.3-11.4a11.046,11.046,0,0,1-2.478-2.307A8.474,8.474,0,0,1-19.9-11.255Zm41.87,6.86a4.8,4.8,0,0,0,1.4.964,2.843,2.843,0,0,1,.537.33.429.429,0,0,1,.122.317,4.3,4.3,0,0,1-.061.513q-.586,3.894-2.832,3.894-2.515,0-4.626-3.918A19.5,19.5,0,0,1,12,1.416a1.888,1.888,0,0,1-.6.281q-.183,0-.525-.525A5.958,5.958,0,0,0,9.595-.146a19.444,19.444,0,0,0,5.8-4.7,31.5,31.5,0,0,1-1.819-9.57h-7.7v3.21h3.6l2.124-.049q.305,0,.305.33-.024.366-.061,1.538-.037.806-.061,1.208a23.365,23.365,0,0,1-.574,4.651A2.827,2.827,0,0,1,8.3-1.453,12.745,12.745,0,0,1,7.019-1.5q-.452-.037-.549-.159A2.089,2.089,0,0,1,6.3-2.332a5.14,5.14,0,0,0-.6-1.794,13.191,13.191,0,0,0,2.051.2,1.123,1.123,0,0,0,1.2-.9A20.9,20.9,0,0,0,9.326-8.85h-3.5a33.425,33.425,0,0,1-.452,4.382A19.09,19.09,0,0,1,3.418,1.379q-.256.476-.415.476-.183,0-.5-.4A7.429,7.429,0,0,0,.952.049a13.655,13.655,0,0,0,1.941-5.53,42.675,42.675,0,0,0,.354-6.042L3.2-16.541q0-.22.061-.269a.492.492,0,0,1,.244-.037l3.345.049H13.5v-.525a30.1,30.1,0,0,0-.208-3.528q2.136.11,2.7.183.378.037.378.293a1.4,1.4,0,0,1-.122.476,6.785,6.785,0,0,0-.134,1.733q0,.415.012.769v.6h3.748l3.32-.049q.2,0,.244.061a.456.456,0,0,1,.037.232v1.917q0,.2-.049.232a.456.456,0,0,1-.232.037l-3.32-.049H16.2a31.565,31.565,0,0,0,1.025,7.068,21.71,21.71,0,0,0,1.5-2.93,12.9,12.9,0,0,0,.671-2.295,12.564,12.564,0,0,1,2.319.891q.378.183.378.4,0,.122-.354.525a4.538,4.538,0,0,0-.623,1.233,28.366,28.366,0,0,1-2.844,5.066,9.2,9.2,0,0,0,1.538,2.393q.684.732,1.135.732t.708-.769A11.965,11.965,0,0,0,21.973-4.395ZM19.653-20.63a11.472,11.472,0,0,1,2.148,2.1.413.413,0,0,1,.1.22q0,.122-.22.256l-1.208.9a.994.994,0,0,1-.317.171q-.073,0-.208-.171a9.724,9.724,0,0,0-2.026-2.2q-.146-.146-.146-.232,0-.061.208-.22l1.147-.806a.617.617,0,0,1,.293-.134A.442.442,0,0,1,19.653-20.63Z" transform="translate(43 35)" fill="#fff"/>
  </g>
  <g id="コンポーネント_15_12" data-name="コンポーネント 15 – 12" transform="translate(0 614)">
    <rect id="長方形_83-2" data-name="長方形 83" width="86" height="54" rx="4" fill="#666"/>
    <path id="パス_246" data-name="パス 246" d="M-1.05-.854A7.619,7.619,0,0,0-2.1,1.1q-.256.684-.5.684a3.016,3.016,0,0,1-.549-.11,24.318,24.318,0,0,1-7.544-3.65,24.179,24.179,0,0,1-7.08,3.735,2.017,2.017,0,0,1-.549.146q-.2,0-.476-.647A5.433,5.433,0,0,0-19.824-.476a22.147,22.147,0,0,0,7.2-3.247A18.314,18.314,0,0,1-16.565-10.9h-1.428a36.25,36.25,0,0,1-.647,5.8A15.116,15.116,0,0,1-21.619,1.27q-.342.452-.452.452-.061,0-.476-.452A7.49,7.49,0,0,0-24.17-.171a10.94,10.94,0,0,0,3.027-5.75,42.207,42.207,0,0,0,.6-8.057l-.049-5.4q0-.208.061-.244a.492.492,0,0,1,.244-.037l3.442.049H-5.9l3.406-.049a.415.415,0,0,1,.256.049.456.456,0,0,1,.037.232v2.051q0,.2-.049.232a.492.492,0,0,1-.244.037L-5.9-17.1H-17.944v3.8h11.1a1.668,1.668,0,0,0,.623-.073,1.223,1.223,0,0,1,.4-.1q.293,0,1.05.7.83.745.83,1.074a.7.7,0,0,1-.305.5,2.617,2.617,0,0,0-.623,1.025A22.773,22.773,0,0,1-8.691-3.857,24.251,24.251,0,0,0-1.05-.854ZM-7.568-10.9h-6.3a14.586,14.586,0,0,0,3.2,5.4A16.27,16.27,0,0,0-7.568-10.9ZM4.175-12.28Q5.945-10.51,7.129-9.2a22.087,22.087,0,0,0,.9-5.225H4.6l-3.027.049q-.2,0-.232-.061a.456.456,0,0,1-.037-.232v-1.88a.386.386,0,0,1,.049-.244.42.42,0,0,1,.22-.037l3.027.061H5.884v-1.611A11.227,11.227,0,0,0,5.676-20.8q1.7.049,2.649.171.4,0,.4.256a2.233,2.233,0,0,1-.146.5,5,5,0,0,0-.134,1.489v1.611H9.18l3.052-.061q.2,0,.232.049a.456.456,0,0,1,.037.232v1.88a.415.415,0,0,1-.049.256.42.42,0,0,1-.22.037l-.513-.012q-.5-.024-1.086-.037a26.23,26.23,0,0,1-1.575,7.4q1.575,1.965,2.93,4a.442.442,0,0,1,.11.232q0,.11-.2.293L10.425-1.147q-.171.171-.269.171-.073,0-.232-.22-.94-1.672-2.1-3.333A22.051,22.051,0,0,1,3.308.891q-.391.354-.525.354-.171,0-.5-.525A5.221,5.221,0,0,0,.928-.757a19.318,19.318,0,0,0,3-2.8A19.031,19.031,0,0,0,6.079-6.8a39.866,39.866,0,0,0-3.65-3.882q-.146-.11-.146-.183,0-.1.171-.269L3.7-12.28a.362.362,0,0,1,.256-.122A.258.258,0,0,1,4.175-12.28ZM14.856-.806q1.086.085,2.222.085.342,0,.623-.012a1.108,1.108,0,0,0,.769-.2.878.878,0,0,0,.159-.6v-11.45h-2.4l-2.942.049a.386.386,0,0,1-.244-.049A.42.42,0,0,1,13-13.2v-2.039q0-.2.049-.232a.456.456,0,0,1,.232-.037l2.942.049h2.4v-1.77a33.924,33.924,0,0,0-.146-3.528q1.44.037,2.649.146.4.037.4.281a1.565,1.565,0,0,1-.146.525,9.834,9.834,0,0,0-.159,2.527v1.819l2.295-.049q.208,0,.244.049a.42.42,0,0,1,.037.22V-13.2q0,.2-.049.232a.456.456,0,0,1-.232.037q-.037,0-.293-.012-.9-.024-2-.037v6.848l.049,5.054A4.738,4.738,0,0,1,21.094.452a1.918,1.918,0,0,1-.586.818q-.732.549-3.979.549-.6,0-.7-.11a1.5,1.5,0,0,1-.232-.635A6.485,6.485,0,0,0,14.856-.806Zm-.232-10.217a18.391,18.391,0,0,1,2.893,4.675.554.554,0,0,1,.061.208q0,.122-.22.269l-1.611.916a.673.673,0,0,1-.269.122q-.085,0-.171-.208a21.1,21.1,0,0,0-2.722-4.736.391.391,0,0,1-.11-.208q0-.1.232-.244l1.416-.842a.623.623,0,0,1,.281-.11Q14.514-11.182,14.624-11.023Z" transform="translate(43 35)" fill="#fff"/>
  </g>
  <g id="グループ_201" data-name="グループ 201" transform="translate(-583 -179)">
    <g id="長方形_95" data-name="長方形 95" transform="translate(592 286.5)" fill="#fff" stroke="#999" stroke-width="3">
      <rect width="68" height="48" rx="4" stroke="none"/>
      <rect x="1.5" y="1.5" width="65" height="45" rx="2.5" fill="none"/>
    </g>
    <path id="パス_249" data-name="パス 249" d="M-6.877-7.038v-4.577H-9.338v4.577h-4.577v2.461h4.577V0h2.461V-4.577H-2.3V-7.038ZM3.082-9.913H6.21a6.845,6.845,0,0,1,.126-1.3,4.031,4.031,0,0,1,.426-1.2,2.49,2.49,0,0,1,.793-.874,2.11,2.11,0,0,1,1.208-.334,2.4,2.4,0,0,1,1.736.656,2.424,2.424,0,0,1,.679,1.828,2.565,2.565,0,0,1-.333,1.311,4.471,4.471,0,0,1-.828,1.035,7.5,7.5,0,0,1-1.093.84q-.6.379-1.127.747Q6.762-6.486,5.83-5.8A9.557,9.557,0,0,0,4.209-4.289,6.487,6.487,0,0,0,3.116-2.438,6.713,6.713,0,0,0,2.714,0H14.536V-2.806H6.923A7.288,7.288,0,0,1,8.3-4.255q.782-.621,1.61-1.161t1.644-1.093a8.8,8.8,0,0,0,1.461-1.23,5.5,5.5,0,0,0,1.035-1.553,5.1,5.1,0,0,0,.391-2.093A4.865,4.865,0,0,0,14-13.5a4.7,4.7,0,0,0-1.207-1.587,5.421,5.421,0,0,0-1.76-.989,6.41,6.41,0,0,0-2.1-.345,6.272,6.272,0,0,0-2.564.494,5,5,0,0,0-1.852,1.38,5.969,5.969,0,0,0-1.1,2.07A7.725,7.725,0,0,0,3.082-9.913Z" transform="translate(626 316.5)" fill="gray"/>
  </g>
  <g id="グループ_202" data-name="グループ 202" transform="translate(-583 -77)">
    <g id="長方形_95-2" data-name="長方形 95" transform="translate(592 286.5)" fill="#fff" stroke="#999" stroke-width="3">
      <rect width="68" height="48" rx="4" stroke="none"/>
      <rect x="1.5" y="1.5" width="65" height="45" rx="2.5" fill="none"/>
    </g>
    <path id="パス_248" data-name="パス 248" d="M-6.877-7.038v-4.577H-9.338v4.577h-4.577v2.461h4.577V0h2.461V-4.577H-2.3V-7.038ZM11.247,0V-16.1h-2.6a3.555,3.555,0,0,1-.575,1.541,3.5,3.5,0,0,1-1.069,1,4.29,4.29,0,0,1-1.426.529,7.731,7.731,0,0,1-1.645.127v2.461H7.981V0Z" transform="translate(626 316.5)" fill="gray"/>
  </g>
  <g id="グループ_203" data-name="グループ 203" transform="translate(-583 25)">
    <g id="長方形_95-3" data-name="長方形 95" transform="translate(592 286.5)" fill="#fff" stroke="#999" stroke-width="3">
      <rect width="68" height="48" rx="4" stroke="none"/>
      <rect x="1.5" y="1.5" width="65" height="45" rx="2.5" fill="none"/>
    </g>
    <path id="パス_247" data-name="パス 247" d="M-2.645-8.119q0-.414.011-1t.08-1.207a8.478,8.478,0,0,1,.23-1.231,4.242,4.242,0,0,1,.449-1.093,2.4,2.4,0,0,1,.736-.782,1.968,1.968,0,0,1,1.116-.3,2.025,2.025,0,0,1,1.127.3,2.467,2.467,0,0,1,.759.782,3.763,3.763,0,0,1,.449,1.093,11.212,11.212,0,0,1,.23,1.231A11.085,11.085,0,0,1,2.634-9.12q.012.586.012,1,0,.69-.046,1.667a8.96,8.96,0,0,1-.287,1.886A3.959,3.959,0,0,1,1.53-3.013a1.913,1.913,0,0,1-1.552.644,1.852,1.852,0,0,1-1.518-.644,4.047,4.047,0,0,1-.77-1.553A8.96,8.96,0,0,1-2.6-6.451Q-2.645-7.429-2.645-8.119Zm-3.266,0a14.687,14.687,0,0,0,.472,4.036A7.1,7.1,0,0,0-4.163-1.495,4.578,4.578,0,0,0-2.289-.115,6.22,6.22,0,0,0-.023.3,6.284,6.284,0,0,0,2.266-.115a4.662,4.662,0,0,0,1.886-1.38A6.988,6.988,0,0,0,5.44-4.082a14.687,14.687,0,0,0,.471-4.036,14.134,14.134,0,0,0-.471-3.945,6.993,6.993,0,0,0-1.288-2.564,4.662,4.662,0,0,0-1.886-1.38,6.284,6.284,0,0,0-2.288-.414,6.22,6.22,0,0,0-2.266.414,4.578,4.578,0,0,0-1.874,1.38,7.105,7.105,0,0,0-1.276,2.564A14.134,14.134,0,0,0-5.911-8.119Z" transform="translate(626 316.5)" fill="gray"/>
  </g>
  <g id="グループ_204" data-name="グループ 204" transform="translate(-583 127)">
    <g id="長方形_95-4" data-name="長方形 95" transform="translate(592 286.5)" fill="#fff" stroke="#999" stroke-width="3">
      <rect width="68" height="48" rx="4" stroke="none"/>
      <rect x="1.5" y="1.5" width="65" height="45" rx="2.5" fill="none"/>
    </g>
    <path id="パス_250" data-name="パス 250" d="M-11.58-7.682v2.806h6.923V-7.682ZM9.028,0V-16.1h-2.6a3.555,3.555,0,0,1-.575,1.541,3.5,3.5,0,0,1-1.069,1,4.29,4.29,0,0,1-1.426.529,7.731,7.731,0,0,1-1.645.127v2.461H5.762V0Z" transform="translate(626 316.5)" fill="gray"/>
  </g>
  <g id="グループ_205" data-name="グループ 205" transform="translate(-583 229)">
    <g id="長方形_95-5" data-name="長方形 95" transform="translate(592 286.5)" fill="#fff" stroke="#999" stroke-width="3">
      <rect width="68" height="48" rx="4" stroke="none"/>
      <rect x="1.5" y="1.5" width="65" height="45" rx="2.5" fill="none"/>
    </g>
    <path id="パス_251" data-name="パス 251" d="M-11.58-7.682v2.806h6.923V-7.682ZM.863-9.913H3.991a6.845,6.845,0,0,1,.126-1.3,4.031,4.031,0,0,1,.426-1.2,2.49,2.49,0,0,1,.793-.874,2.11,2.11,0,0,1,1.207-.334,2.4,2.4,0,0,1,1.736.656,2.424,2.424,0,0,1,.679,1.828,2.565,2.565,0,0,1-.333,1.311A4.471,4.471,0,0,1,7.8-8.786a7.5,7.5,0,0,1-1.092.84q-.6.379-1.127.747-1.035.713-1.967,1.4A9.557,9.557,0,0,0,1.99-4.289,6.487,6.487,0,0,0,.9-2.438,6.713,6.713,0,0,0,.495,0H12.317V-2.806H4.7a7.288,7.288,0,0,1,1.38-1.449q.782-.621,1.61-1.161T9.338-6.509A8.8,8.8,0,0,0,10.8-7.739a5.5,5.5,0,0,0,1.035-1.553,5.1,5.1,0,0,0,.391-2.093,4.865,4.865,0,0,0-.449-2.116,4.7,4.7,0,0,0-1.207-1.587,5.421,5.421,0,0,0-1.76-.989,6.41,6.41,0,0,0-2.1-.345,6.272,6.272,0,0,0-2.565.494,5,5,0,0,0-1.852,1.38,5.969,5.969,0,0,0-1.1,2.07A7.725,7.725,0,0,0,.863-9.913Z" transform="translate(626 316.5)" fill="gray"/>
  </g>
</svg>
