<svg xmlns="http://www.w3.org/2000/svg" width="20.853" height="12" viewBox="0 0 20.853 12">
  <g id="up2" transform="translate(-13988.092 -2044.151)">
    <path id="パス_253" data-name="パス 253" d="M7.944-.944a.89.89,0,0,0-.456-.824,1.712,1.712,0,0,0-.856-.12H3.608L6.376-5.216c1.016-1.216,1.472-1.832,1.472-3.12,0-2.032-1.4-3.152-3.5-3.152a3.568,3.568,0,0,0-2.44.8,2.61,2.61,0,0,0-.96,1.88,1.13,1.13,0,0,0,.248.744.887.887,0,0,0,.744.312.964.964,0,0,0,.592-.176,1.465,1.465,0,0,0,.408-.592A1.418,1.418,0,0,1,4.392-9.6,1.25,1.25,0,0,1,5.76-8.288a2.681,2.681,0,0,1-.8,1.808L1.424-2.192A1.778,1.778,0,0,0,.872-1.048,1.032,1.032,0,0,0,1.16-.3a1.382,1.382,0,0,0,1.1.3H6.632a1.712,1.712,0,0,0,.856-.12A.89.89,0,0,0,7.944-.944Z" transform="translate(14001 2056)" fill="#fd22a1"/>
    <g id="arrow" transform="translate(12971 1171)">
      <path id="パス_228" data-name="パス 228" d="M11909.577,3941.15v-9.625" transform="translate(-10886.077 -3057)" fill="none" stroke="#fd22a1" stroke-linecap="round" stroke-width="2"/>
      <path id="パス_229" data-name="パス 229" d="M11904.883,3937.15l4.974-6,5.026,6" transform="translate(-10886.383 -3057)" fill="none" stroke="#fd22a1" stroke-linecap="round" stroke-linejoin="round" stroke-width="2"/>
    </g>
  </g>
</svg>
